<svg width="34" height="6" viewBox="0 0 34 6" fill="none" xmlns="http://www.w3.org/2000/svg">
<path d="M5 6C6.65686 6 8 4.65686 8 3C8 1.34314 6.65686 0 5 0C3.34314 0 2 1.34314 2 3C2 4.65686 3.34314 6 5 6Z" fill="black"/>
<path d="M17 6C18.6569 6 20 4.65686 20 3C20 1.34314 18.6569 0 17 0C15.3431 0 14 1.34314 14 3C14 4.65686 15.3431 6 17 6Z" fill="black"/>
<path d="M29 6C30.6569 6 32 4.65686 32 3C32 1.34314 30.6569 0 29 0C27.3431 0 26 1.34314 26 3C26 4.65686 27.3431 6 29 6Z" fill="black"/>
</svg>
