<svg width="620" height="142" viewBox="0 0 620 142" fill="none" xmlns="http://www.w3.org/2000/svg">
<path d="M587.118 0H30.4102C24.0086 0 18.1029 3.44705 14.9548 9.02109C8.272 20.8536 16.8209 35.5 30.4102 35.5H164.89C170.612 35.5 174.965 40.6378 174.025 46.2822C173.281 50.7482 169.418 54.0217 164.89 54.0217H74.7856C66.1322 54.0217 58.5372 59.7834 56.2057 68.1168C52.7638 80.4185 62.0115 92.6087 74.7856 92.6087H141.113C154.043 92.6087 163.532 104.759 160.398 117.304C157.264 129.849 166.753 142 179.683 142H184.602C193.908 142 201.985 135.581 204.086 126.515L221.586 50.9855C223.687 41.9192 231.763 35.5 241.07 35.5H358.29C364.315 35.5 368.735 41.1608 367.275 47.0053C366.245 51.1288 362.54 54.0217 358.29 54.0217H261.191C251.852 54.0217 243.756 60.4852 241.688 69.5926L237.512 87.9783L232.984 117.436C231.96 124.097 234.359 130.825 239.367 135.335L241.06 136.861C244.733 140.169 249.502 142 254.445 142H377.846C388.076 142 396.368 133.708 396.368 123.478C396.368 113.249 388.076 104.957 377.846 104.957H289.471C283.447 104.957 279.026 99.2958 280.486 93.4512C281.516 89.3278 285.221 86.4348 289.471 86.4348H388.346C397.578 86.4348 405.61 80.1158 407.784 71.1433L412.714 50.7914C414.887 41.819 422.92 35.5 432.152 35.5H541.823C547.847 35.5 552.268 41.1608 550.807 47.0053C549.777 51.1288 546.073 54.0217 541.823 54.0217H444.375C435.196 54.0217 427.195 60.2695 424.971 69.1745L419.502 91.0652L415.134 117.297C414.012 124.032 416.404 130.874 421.477 135.444L423.05 136.861C426.724 140.169 431.492 142 436.435 142H601.478C611.708 142 620 133.708 620 123.478C620 113.249 611.708 104.957 601.478 104.957H473.49C468.375 104.957 464.229 100.81 464.229 95.6956C464.229 90.581 468.375 86.4348 473.49 86.4348H576.347C585.652 86.4348 593.727 80.0181 595.83 70.9541L606.601 24.5193C609.509 11.9812 599.989 0 587.118 0Z" fill="#AA2298"/>
<path d="M223.655 0H323.001V35.5H241.081C234.596 35.5 228.513 38.6443 224.763 43.9351L223.654 45.5L223.655 0Z" fill="url(#paint0_linear_1825_2675)"/>
<path fill-rule="evenodd" clip-rule="evenodd" d="M208.1 0C208.034 0.323128 208 0.657571 208 1.00006C208 3.76148 210.239 6.00003 213 6C215.511 5.99997 217.197 6.20542 218.354 6.68789C219.207 7.04377 219.888 7.57617 220.387 9.00763C220.986 10.7268 221.327 13.8356 220.543 19.2528C219.768 24.6007 217.961 31.7851 214.697 41.3914C213.808 44.006 215.208 46.8458 217.822 47.7342C220.437 48.6226 223.277 47.2232 224.165 44.6086C227.533 34.6972 229.544 26.8728 230.44 20.6861C231.326 14.5688 231.19 9.61728 229.829 5.71582C228.998 3.33006 227.744 1.444 226.19 0H208.1Z" fill="#AA2298"/>
<path d="M414.655 0H514.001V35.5H432.081C425.596 35.5 419.513 38.6443 415.763 43.9351L414.654 45.5L414.655 0Z" fill="url(#paint1_linear_1825_2675)"/>
<path fill-rule="evenodd" clip-rule="evenodd" d="M399.1 0C399.034 0.323128 399 0.657571 399 1.00006C399 3.76148 401.239 6.00003 404 6C406.511 5.99997 408.197 6.20542 409.354 6.68789C410.207 7.04377 410.888 7.57617 411.387 9.00763C411.986 10.7268 412.327 13.8356 411.543 19.2528C410.768 24.6007 408.961 31.7851 405.697 41.3914C404.808 44.006 406.208 46.8458 408.822 47.7342C411.437 48.6226 414.277 47.2232 415.165 44.6086C418.533 34.6972 420.544 26.8728 421.44 20.6861C422.326 14.5688 422.19 9.61728 420.829 5.71582C419.998 3.33006 418.744 1.444 417.19 0H399.1Z" fill="#AA2298"/>
<defs>
<linearGradient id="paint0_linear_1825_2675" x1="323" y1="22" x2="224.913" y2="22" gradientUnits="userSpaceOnUse">
<stop stop-color="#AA2298"/>
<stop offset="1" stop-color="#68005A"/>
</linearGradient>
<linearGradient id="paint1_linear_1825_2675" x1="514" y1="22" x2="415.913" y2="22" gradientUnits="userSpaceOnUse">
<stop stop-color="#AA2298"/>
<stop offset="1" stop-color="#68005A"/>
</linearGradient>
</defs>
</svg>
