
<svg width="35" height="6" viewBox="0 0 35 6" fill="none" xmlns="http://www.w3.org/2000/svg">
<path d="M5.5 6C7.15686 6 8.5 4.65686 8.5 3C8.5 1.34314 7.15686 0 5.5 0C3.84314 0 2.5 1.34314 2.5 3C2.5 4.65686 3.84314 6 5.5 6Z" fill="black"/>
<path d="M17.5 6C19.1569 6 20.5 4.65686 20.5 3C20.5 1.34314 19.1569 0 17.5 0C15.8431 0 14.5 1.34314 14.5 3C14.5 4.65686 15.8431 6 17.5 6Z" fill="black"/>
<path d="M29.5 6C31.1569 6 32.5 4.65686 32.5 3C32.5 1.34314 31.1569 0 29.5 0C27.8431 0 26.5 1.34314 26.5 3C26.5 4.65686 27.8431 6 29.5 6Z" fill="black"/>
</svg>
